<svg width="1920" height="1876" viewBox="0 0 1920 1876" fill="none" xmlns="http://www.w3.org/2000/svg">
<g filter="url(#filter0_f_31_66)">
<path d="M1914.71 1951.61C1804.75 2429.05 2214.22 1620.86 2143.69 1981.45C2178.82 1966.3 2268.89 1900.21 2378.78 1814.6C2429.93 1728.61 2465.62 1670.71 2477.07 1677.31C2486.96 1683.03 2494.52 1697.93 2499.8 1718.99C2724.68 1539.33 2976.26 1329.36 3020.12 1298.59C3099.3 1243.03 2582.98 1905.13 2461.24 2067.42C2455.1 2079.35 2448.39 2089.6 2441.12 2097.71C2429.34 2110.87 2438.26 2098.04 2461.24 2067.42C2506.32 1979.79 2520.61 1801.81 2499.8 1718.99C2458.04 1752.35 2417.2 1784.67 2378.78 1814.6C2236.37 2054.04 1974.2 2511.27 1782.35 2400.5C1368.69 2404.04 1420.18 1061.17 484.249 1939.22C59.2869 2337.89 -410.161 2178.83 154.879 1366.9C408.657 1002.23 363.775 822.953 237.317 736.096C-11.7593 702.706 -195.609 662.062 -195.609 662.062C-195.609 662.062 82.2139 629.563 237.317 736.096C460.736 766.045 736.635 790.158 979.406 773.867C1229.8 405.68 1572.44 47.0895 1570.89 408.563C1569.82 657.909 1304.28 752.065 979.406 773.867C784.104 1061.04 644.919 1354.05 768.936 1315.79C1117.12 1208.36 2024.66 1474.17 1914.71 1951.61Z" fill="url(#paint0_radial_31_66)"/>
</g>
<defs>
<filter id="filter0_f_31_66" x="-453.709" y="0.306732" width="3740.14" height="2675.31" filterUnits="userSpaceOnUse" color-interpolation-filters="sRGB">
<feFlood flood-opacity="0" result="BackgroundImageFix"/>
<feBlend mode="normal" in="SourceGraphic" in2="BackgroundImageFix" result="shape"/>
<feGaussianBlur stdDeviation="129.05" result="effect1_foregroundBlur_31_66"/>
</filter>
<radialGradient id="paint0_radial_31_66" cx="0" cy="0" r="1" gradientUnits="userSpaceOnUse" gradientTransform="translate(725.589 1505.56) rotate(-4.41895) scale(1588.48 3077.97)">
<stop offset="0.135" stop-color="#000762"/>
<stop offset="0.535" stop-color="#FB6400"/>
<stop offset="0.725476" stop-color="#9D4D2C"/>
</radialGradient>
</defs>
</svg>
